<svg width="105" height="35" viewBox="0 0 105 35" fill="none" xmlns="http://www.w3.org/2000/svg">
<g clip-path="url(#clip0_24_5)">
<path d="M59.4222 5.96245C61.4327 7.4084 63.2411 9.01649 64.7911 10.7867L67.0732 8.61943C65.0263 6.9584 62.9297 5.53892 60.4655 4.41723C61.0319 3.2426 61.234 2.16061 61.4658 0.86686L57.0375 0.856934L56.8189 1.94223L57.4582 2.10436C57.6966 2.1573 57.8126 2.15068 57.7761 2.36576C57.3025 4.9334 54.7423 8.00399 51.821 9.55914L52.9173 10.7867C55.4212 9.70142 57.7927 7.98414 59.4189 5.96245" fill="#03346D"/>
<path d="M53.4937 14.0957H51.1586V15.181V15.7236H51.7051H53.4937H67.7423V14.0957H53.4937Z" fill="#03346D"/>
<path d="M17.5409 14.0957V15.181V15.7236H18.0907H19.8792H34.1279V14.0957H19.8792H17.5409Z" fill="#03346D"/>
<path d="M39.8843 14.7275V11.1011H36.1548L36.7047 12.1434V12.868C36.7047 12.868 36.7047 12.8779 36.708 12.8845V14.7275H36.7047V16.3555H49.4032V14.7275H39.8876H39.8843Z" fill="#03346D"/>
<path d="M19.5314 2.81913V10.9688H32.3161V9.26803H32.3128V1.24744H29.1398V4.48347H22.711V1.24744H18.9816L19.5314 2.28972V2.82244V2.81913ZM22.711 6.0717H29.1398V9.34413H22.711V6.0717Z" fill="#03346D"/>
<path d="M6.48508 0.866925L5.9154 0.840454H2.56356L2.37477 1.77023L3.08687 1.96876C3.26904 2.0217 3.37834 2.20369 3.37834 2.42207C3.4512 6.75994 2.83184 10.6974 0 13.8077L1.26191 14.8202C2.92458 13.3213 4.13018 11.6405 4.98801 9.68825C5.64381 11.207 6.15718 12.7588 6.57782 14.4596L9.13475 13.0136C8.20406 11.0614 7.10775 9.29119 5.73655 7.55737C6.28304 5.58862 6.50495 3.38163 6.48508 0.870234" fill="#03346D"/>
<path d="M29.1398 1.24744H28.59L29.1398 2.28641V1.24744Z" fill="#03346D"/>
<path d="M13.053 0.595703L13.6028 1.63798V16.5376H16.332V2.07806C16.332 1.58504 16.3485 1.08872 16.3849 0.595703H13.053Z" fill="#03346D"/>
<path d="M9.67794 0.595703H9.12813L9.67794 1.63798V2.27659V5.78394H7.78011H7.37604V5.78725V6.90563V7.44497H7.92253H9.67794V16.5376H12.4071V9.08945V2.31298V0.595703H9.68125H9.67794Z" fill="#03346D"/>
<path d="M43.3354 9.9761C44.6503 9.9761 45.6373 9.5261 46.0381 9.01985V12.021H49.2177V6.22059H51.3904V4.55625H49.2177V2.09779C49.2177 1.50221 49.2376 0.906618 49.2906 0.307721L44.8524 0L44.6702 0.976103L45.273 1.19449C45.7466 1.37647 45.9288 1.66434 46.0414 2.25993V7.88162C45.3094 8.26213 44.3423 8.35147 43.4282 8.35147H38.3309V6.12794H43.7561V0.813971H34.8068V2.4386H40.5798V4.5H35.1645H34.6147L35.1645 5.54228V9.9761H43.3387H43.3354Z" fill="#03346D"/>
<path d="M78.172 6.63093C77.5162 8.13645 76.4497 9.53608 75.3335 10.7372C74.436 11.7034 73.449 12.4909 72.3725 13.0997L71.0444 12.0376C71.7134 11.4817 72.3957 10.7769 73.0846 9.92321C73.7735 9.06954 74.5784 8.0438 75.0454 7.12064H72.0744V5.40667H75.5919C75.8436 4.75814 75.986 4.10299 76.0754 3.59343C76.1649 3.08057 76.2145 2.59748 76.2278 2.14417H71.6141V0.0496826H79.3379C79.3379 0.833874 79.2882 1.59821 79.1855 2.3427C78.9868 3.81182 78.7649 5.26439 78.1687 6.63093" fill="#03346D"/>
<path d="M99.7503 6.95518C99.6377 8.55666 99.0614 9.90335 98.0148 11.0052C96.9682 12.1037 95.7228 12.653 94.2787 12.653C92.8347 12.653 91.4701 12.0375 90.387 10.8033C89.304 9.56916 88.7641 8.0868 88.7641 6.35298C88.7641 4.61916 89.304 3.12026 90.387 1.89268C91.4701 0.665111 92.7651 0.0529785 94.2787 0.0529785C95.5969 0.0529785 96.7496 0.512905 97.7432 1.43607C98.7335 2.35923 99.3694 3.51401 99.6476 4.90702C99.6476 4.90702 99.8166 6.00555 99.7503 6.95849M92.4207 3.1732C91.9073 4.05004 91.6522 5.11217 91.6522 6.34967C91.6522 7.58717 91.9073 8.63276 92.4207 9.5096C92.934 10.3864 93.5534 10.8265 94.2787 10.8265C95.0041 10.8265 95.6268 10.3864 96.1468 9.5096C96.6668 8.63276 96.9251 7.57724 96.9251 6.34967C96.9251 5.1221 96.6668 4.05004 96.1468 3.1732C95.6268 2.29636 95.0041 1.85629 94.2787 1.85629C93.5534 1.85629 92.934 2.29636 92.4207 3.1732Z" fill="#03346D"/>
<path d="M83.945 0.0496897C83.9483 0.109249 84.5644 1.11844 84.5114 1.18793C84.5114 4.29822 84.5114 13.2585 84.5114 16.4945H87.3267C87.3399 16.0479 87.2836 -0.274575 87.383 0.0496897H83.945Z" fill="#03346D"/>
<path d="M80.4607 0.0496826H79.8976L80.4607 1.12505V5.40336H77.0261V7.11733H80.4607V16.4945H83.276V0.0496826H80.4607Z" fill="#03346D"/>
<path d="M102.185 0.0496826H101.622L102.185 1.12505V5.40336H98.7501V7.11733H102.185V16.4945H105V0.0496826H102.185Z" fill="#03346D"/>
<path d="M61.7242 26.1562C61.7661 26.1363 61.7981 26.1253 61.8202 26.1231C62.1382 26.0238 62.264 26.0205 62.3303 26.0172C62.5919 26.09 63.0788 26.1529 63.1947 25.9213C63.2709 25.5507 62.8735 25.3985 62.582 25.3554C62.5157 25.329 62.2905 25.3389 62.0984 25.3488C61.8732 25.3885 61.8434 25.3885 61.8434 25.3885C61.3963 25.4646 60.9226 25.6268 60.4821 25.8154L60.2006 25.9411L60.0118 26.0338C59.0116 26.5566 58.1107 27.1621 57.3058 27.708C57.5708 27.301 58.1868 26.2257 57.9285 26.1827C57.8623 26.1562 57.8291 26.1297 57.8291 26.1297C57.6337 26.0801 57.3721 26.0371 57.2164 26.0999C57.1104 26.1827 57.0044 26.3084 56.9051 26.4573C55.6167 27.5591 54.3912 28.6577 52.861 29.4584C52.2052 29.7992 51.6753 30.1036 51.0427 30.3021C50.2842 30.5338 49.7509 30.0441 49.9464 29.5279C50.0755 29.0679 50.2246 28.6709 50.4531 28.2407C50.632 27.9032 50.8737 27.5988 51.1221 27.2944C51.1983 27.1985 51.2811 27.1091 51.3606 27.0165C51.4004 26.9702 51.4401 26.9238 51.4798 26.8775C51.4931 26.861 51.5627 26.7584 51.5825 26.7584C51.6554 26.6757 51.7249 26.5896 51.8044 26.5069C51.8641 26.4441 51.9469 26.3613 51.9435 26.2753V26.2455C51.9237 25.9345 51.1751 25.7691 50.9632 26.0073C50.7843 26.272 50.5392 26.5069 50.314 26.7452C50.0159 27.0628 49.7079 27.397 49.38 27.7179C49.2276 27.8668 49.0753 28.0124 48.9196 28.158C48.5586 28.5054 48.1943 28.8529 47.8332 29.2003C47.7604 29.2698 47.6875 29.3426 47.6146 29.4121C47.247 29.7694 46.886 30.1301 46.4786 30.4543C46.3395 30.5635 46.2004 30.6694 46.0546 30.772C45.9718 30.8282 45.7731 31.0003 45.6671 30.8944C45.6373 30.8646 45.6274 30.8249 45.6208 30.7852C45.581 30.4775 45.7234 30.1599 45.8658 29.8852C46.0116 29.604 46.1971 29.3426 46.4024 29.0944C46.7833 28.6378 47.2139 28.2176 47.6842 27.8338C48.2009 27.4168 48.7838 27.043 49.4595 26.8775C49.741 26.808 50.0722 26.7518 50.2014 26.5202C50.2345 26.4606 50.2511 26.3845 50.2179 26.3249C50.1683 26.2323 50.0424 26.2025 49.9265 26.1926C49.4495 26.143 48.9693 26.2521 48.5288 26.4143C48.4758 26.4341 48.4261 26.4573 48.3764 26.4771C48.3135 26.4771 48.2539 26.4838 48.2009 26.5069C48.0452 26.54 47.8962 26.6128 47.7637 26.6823L47.7273 26.6988C47.5815 26.7617 47.4424 26.851 47.3199 26.9338L47.2602 26.9735C46.929 27.1786 46.6177 27.4003 46.3196 27.6121L46.0447 27.8073C45.687 28.0687 45.3359 28.3268 44.9815 28.5882C44.2694 29.111 43.5573 29.6338 42.8254 30.1566C41.7622 30.9143 40.5201 31.7878 39.2417 32.5588C38.6157 32.9293 38.0626 33.2271 37.5525 33.4687C37.4863 33.5018 37.42 33.5282 37.3538 33.558C37.3074 33.5779 37.2643 33.5944 37.218 33.6143L37.2113 33.6043L37.1219 33.6474C37.1021 33.6573 37.0855 33.6672 37.0756 33.6805L36.8338 33.7599C36.6085 33.8492 36.39 33.9187 36.2012 33.9749L35.9958 34.0146L35.966 34.0047L35.9461 34.0246C35.9263 34.0279 35.9064 34.0345 35.8898 34.0444C35.8898 34.0444 35.8865 34.0444 35.8832 34.0444C35.8037 34.0643 35.6977 34.0709 35.6116 34.0742H35.5719H35.5686L35.4162 34.0808C35.4162 34.0808 35.3963 34.0742 35.3831 34.0742V34.0643C35.3599 34.0643 35.3367 34.0643 35.3168 34.0643L35.3036 34.0477H35.2638C35.2638 34.0477 35.2373 34.0378 35.2175 34.0345C35.2042 34.0279 35.191 34.0213 35.1843 34.0179L35.1545 34.0014C35.1545 34.0014 35.1314 33.9948 35.1247 33.9915C35.1214 33.9915 35.1148 33.9849 35.1115 33.9816L35.0519 33.9319C35.0221 33.8889 34.9989 33.8624 34.9757 33.8426C34.9426 33.8029 34.9094 33.7599 34.873 33.7069C34.8697 33.6805 34.8598 33.6573 34.8465 33.6374C34.8465 33.611 34.8366 33.5845 34.8167 33.5646C34.8134 33.5448 34.8035 33.5183 34.7836 33.4918V33.472C34.7538 33.3529 34.7306 33.247 34.7207 33.1179C34.6875 32.9426 34.6776 32.7407 34.6677 32.5588C34.6577 32.3801 34.6677 32.2543 34.6743 32.1054L34.6809 32.0029C34.7703 31.1955 35.0088 30.3849 35.3963 29.5874C36.0389 28.1613 37.0855 26.6724 38.5892 25.0345C39.1224 24.4389 39.702 23.8466 40.3678 23.2246C40.6129 22.9863 40.8778 22.7514 41.1428 22.5363C41.2488 22.4338 41.3614 22.3477 41.4773 22.2551C41.5171 22.2154 41.5568 22.179 41.633 22.126L41.6496 22.1095C41.6727 22.0996 41.7026 22.0797 41.7357 22.0466C42.6697 21.3054 43.9183 20.3757 45.3227 19.747C45.3757 19.7106 45.4452 19.6775 45.5115 19.6444C45.5313 19.6444 45.5512 19.6345 45.5678 19.6279C45.5943 19.6213 45.6174 19.608 45.634 19.5981L45.6671 19.5849C45.7002 19.5716 45.7267 19.5617 45.7433 19.5617L45.783 19.5518C45.9056 19.4988 46.0447 19.4591 46.1772 19.4194L46.2699 19.3929C46.3163 19.3797 46.3594 19.3665 46.3991 19.3566C46.4256 19.3499 46.4521 19.34 46.472 19.3334C46.4852 19.3334 46.4985 19.3334 46.5117 19.3301L46.6608 19.3168L46.6906 19.3102C46.7436 19.2937 46.823 19.2871 46.8827 19.2871C46.929 19.3069 46.9787 19.3036 47.0085 19.3003L47.0416 19.3069H47.0549C47.0549 19.3069 47.0781 19.3135 47.0913 19.3168C47.0913 19.3168 47.1112 19.3268 47.1278 19.3334C47.1377 19.3367 47.1476 19.34 47.1576 19.3433C47.1609 19.3433 47.1642 19.3499 47.1708 19.3499C47.1973 19.3698 47.2205 19.3797 47.2437 19.3896L47.2636 19.4062C47.2834 19.4227 47.2967 19.4327 47.3132 19.4591L47.3464 19.5121H47.3662C47.3662 19.5121 47.3762 19.522 47.3828 19.5286C47.3894 19.5352 47.396 19.5452 47.4027 19.5518L47.4126 19.565C47.4258 19.5915 47.4424 19.6213 47.459 19.651C47.4722 19.6775 47.4888 19.704 47.4987 19.7271C47.4987 19.7668 47.512 19.79 47.5285 19.8099L47.5351 19.8231C47.5351 19.8231 47.5418 19.8463 47.5451 19.8529C47.5484 19.8661 47.555 19.8793 47.555 19.886L47.5616 20.0216V20.0349C47.5252 20.4319 47.3729 20.8422 47.2238 21.236L47.1808 21.3551C47.1211 21.5073 47.0483 21.6463 46.9721 21.7952L46.8992 21.9407C46.8992 21.9407 46.8992 21.9441 46.8959 21.9474L46.823 21.9606L46.8297 22.0632C46.8297 22.0632 46.823 22.0764 46.8197 22.083L46.6839 22.2187L46.6906 22.2253C46.674 22.2551 46.6707 22.2816 46.6674 22.3047C46.6574 22.4305 46.7568 22.543 46.8429 22.5992C47.0052 22.7051 47.2901 22.758 47.4921 22.6422C47.5981 22.5893 47.6709 22.4834 47.7173 22.4139L47.7339 22.3874C47.82 22.2385 47.9061 22.0863 47.969 21.9374C48.1346 21.5602 48.2804 21.1797 48.3996 20.8058C48.5089 20.465 48.6016 20.1043 48.4824 19.7569C48.3466 19.383 48.1346 19.115 47.8399 18.9363C47.1178 18.4367 46.0944 18.665 45.687 18.7874C44.8524 19.0191 44.1038 19.426 43.4811 19.7933C42.3617 20.4617 41.2786 21.2393 40.2651 22.1128C39.0198 23.1948 37.844 24.3926 36.7742 25.6731C35.3102 27.4632 34.4126 29.0084 33.9556 30.5338C33.674 31.3907 33.5846 32.251 33.6939 33.022C33.7337 33.3827 33.8363 33.9088 34.2636 34.2893C34.661 34.6367 35.1645 34.7525 35.658 34.7525C36.1879 34.7525 36.7046 34.6202 37.0623 34.501C38.3242 34.0841 39.4768 33.4025 40.4373 32.7871C41.729 31.983 42.938 31.1327 44.0541 30.3352C44.3025 30.1566 44.5476 29.9746 44.796 29.7926C44.5841 30.2922 44.5079 30.9176 45.008 31.3014C45.1571 31.4139 45.3392 31.4834 45.5313 31.5132C46.313 31.6323 47.0085 31.1327 47.512 30.676C47.7405 30.4709 47.9392 30.2393 48.1744 30.0407C48.33 29.9084 48.4791 29.7694 48.6248 29.6305C48.6977 29.561 48.7672 29.4915 48.8335 29.422C48.8832 29.3691 49.0057 29.2764 49.0223 29.2102C48.9163 29.6106 48.8765 30.0639 49.1548 30.3915C49.6085 30.9937 50.6088 31.0334 51.3739 30.9176C51.8508 30.8117 52.2913 30.6231 53.54 29.9448C53.9474 29.7297 54.1925 29.5477 54.7224 29.2135C55.1298 28.9555 55.4809 28.7073 55.8154 28.4591L55.7823 28.5187L55.61 28.8661C55.3484 29.3591 55.2888 29.4187 54.7224 30.2624L54.3647 30.7885C54.3051 30.9043 54.5137 31.1492 54.676 31.1988C54.8052 31.222 55.196 31.2882 55.2556 31.1724C55.2854 31.1426 55.3153 31.0863 55.3451 31.0268C55.5537 30.7356 55.6133 30.6463 55.7591 30.3849L56.4546 29.6172L57.1601 28.9918L57.9252 28.2805L58.4816 27.8602L59.2302 27.4301L59.5713 27.2183L60.1642 26.8808L60.4788 26.7253C60.7603 26.5731 61.0717 26.4176 61.4194 26.2588L61.7043 26.1628L61.7242 26.1562Z" fill="#A8896C"/>
<path d="M71.2995 25.7924L71.2663 25.7659L71.2001 25.713C71.1007 25.66 71.1637 25.6567 71.0014 25.6369C71.0014 25.6369 70.8722 25.6137 70.902 25.6137H70.8689C70.7728 25.6203 70.7099 25.6203 70.647 25.6534C70.4251 25.7196 70.2098 25.8718 70.0541 25.9611C69.7461 26.1994 69.3089 26.4475 68.9678 26.6858C67.2918 27.8041 65.8941 28.6876 64.354 29.3758C63.6949 29.6604 63.1583 29.8523 62.3899 29.9416L62.1018 29.9549C62.0355 29.9549 61.9726 29.9317 61.9064 29.9052C61.6712 29.7464 61.6911 29.5479 61.6811 29.3494L61.7076 29.2369C61.7076 29.2104 61.7375 29.1806 61.7341 29.1508C61.7341 29.121 61.7341 29.0946 61.7606 29.0648C61.7838 28.9225 61.8434 28.8067 61.8997 28.6909C61.9196 28.671 61.9395 28.6512 61.9594 28.6313C62.3535 28.7571 62.8636 28.6777 63.1782 28.5221C63.7148 28.3302 64.2745 27.9927 64.7084 27.6916C65.1721 27.3608 65.5695 27.0034 65.8709 26.5931C66.169 26.1828 66.4274 25.6071 65.8908 25.263C65.2582 24.8957 64.4401 25.2133 63.94 25.5177C63.3471 25.8552 62.8238 26.2721 62.4264 26.6593C61.966 27.0762 61.4824 27.6354 61.1578 28.1284C60.8929 28.5652 60.6047 29.1707 60.7637 29.6736C60.9856 30.203 61.6149 30.4843 62.2276 30.5141C62.7443 30.5207 63.2842 30.438 63.7611 30.3056C64.6488 30.0674 65.6822 29.571 66.4969 29.1409C67.686 28.5221 68.7425 27.8273 69.6401 27.2218L70.6337 26.5567L70.7563 26.4674L71.157 26.1663C71.1869 26.1365 71.2498 26.0769 71.2498 26.0769L71.3094 25.9909C71.3359 25.9049 71.3359 25.8751 71.2995 25.7924ZM62.4065 27.9365C62.7973 27.4402 63.2875 26.9935 63.7777 26.5766C63.7777 26.5766 63.9002 26.4872 63.9334 26.4574C64.089 26.3383 64.2083 26.2192 64.3971 26.0968C64.7051 25.885 64.9866 25.7328 65.2748 25.6633C65.3178 25.8585 65.2019 26.0637 65.2019 26.0637C64.2215 27.5196 62.1415 28.317 62.2608 28.1449L62.4098 27.9398L62.4065 27.9365Z" fill="#A8896C"/>
</g>
<defs>
<clipPath id="clip0_24_5">
<rect width="105" height="34.7426" fill="white"/>
</clipPath>
</defs>
</svg>
